<?xml version="1.0" encoding="utf-8"?>
<!-- Generator: Adobe Illustrator 26.3.1, SVG Export Plug-In . SVG Version: 6.00 Build 0)  -->
<svg version="1.1" id="レイヤー_1" xmlns="http://www.w3.org/2000/svg" xmlns:xlink="http://www.w3.org/1999/xlink" x="0px"
	 y="0px" width="286px" height="620px" viewBox="0 0 286 620" enable-background="new 0 0 286 620" xml:space="preserve">
<path fill-rule="evenodd" clip-rule="evenodd" fill="#CF4647" d="M262.6,341.1L282.9,159c0,0-19.2,15.9-141.4,15.9
	C19.2,174.9,2,159.3,2,159.3l16.1,154.8c8.6-24.5,29.1-74.2,61.5-72.6c14.7,0.8,34.3,29,17.5,30c-7.1,0.4-7.8-14.1-16.2-16.2
	c-6.1-1.5-14.5,3.4-20,8.8c-10.9,10.7-34.3,52.8-31.2,73.8c4,26.8,36.9-9.3,42.5-20c3.9-7.5,6.6-29.9,15.2-27.5
	c8.6,2.3-0.8,25.4-7,45.8c-7,22.9-10.7,47.1-19.4,44.3c-8.8-2.8,5.5-32.3,5-37.5c-8.2,7.6-23.5,26.9-42.9,17.3l10.3,99.3
	c0,0,26.8,21.2,107.7,21.2c80.8,0,108.6-20.9,108.6-20.9l11.4-102.6c-11.2,10.1-41.8,26.2-43.8,6.8c-1.7-16,35.2-39.3,25.7-40.1
	c-20.3,1.2-30.5,23.9-40.7,47.6c-3.7,8.7-16.6,45.8-25,41.3c-8.4-4.6,10.9-35.1,16.3-53.2c-6.2,4.6-29.2,22.4-35.1,5.7
	c-9.5,8-29.8,12.4-27.5-8.8c-5,9-16.4,21.5-30,16.3c-17.9-6.8,10.4-63.8,17.4-60.9c7,2.9-1.4,15.8-3.6,20.9
	c-4.9,11.1-10.5,25-6.7,27.9c6.4,4.9,23.9-18.5,24.3-19c3.3-4.3,12.6-32.6,20.1-29.3c7.5,3.2-18.7,40.6-8.9,48
	c2,1.5,10.1-0.9,15-6.2c3.2-3.4,2.1-11.1,12.7-36.4c10.6-25.3,20.1-56.9,27.4-54.5c7.3,2.4,1.3,18.6-1.3,24.6
	c-12.2,28.3-33.4,75.1-23.4,71.6c10-3.5,15.2-3.8,25-15.2c9.8-11.5,9.3-30.4,15.9-29.9c6.5,0.4,5.4,6.4,3.9,11
	c6.4-7.3,30.4-22.8,36.2-7.5c6.9,18.2-34.4,44.4-24.1,43c9.6-1.3,24.8-10.7,32.2-19.6L262.6,341.1z M178.9,129.6
	c-11.4-0.4-23.4-0.6-35.7-0.6c-78.6,0-142.3,9-142.3,20s63.7,20,142.3,20s142.3-9,142.3-20c0-8-33.4-14.9-81.7-18.1l9.9-38.9
	L284,17.8l-0.3-0.3c0.2-0.1,0.4-0.3,0.6-0.5c1.8-2.1-0.9-7.3-6-11.7c-5.1-4.4-10.7-6.3-12.4-4.3c-0.2,0.3-0.4,0.6-0.5,1l-74.6,79
	L178.9,129.6L178.9,129.6z M220.4,600.2c0,10.5-34.7,19-77.5,19s-77.5-8.5-77.5-19L58.8,502L40,470.9c0,0,37.5,15.3,101.3,15.3
	c63.8,0,101.9-15.6,101.9-15.6l-16.7,28.6L220.4,600.2L220.4,600.2z M196.9,154.4c2.4-0.3,6.1-0.8,6.1-3.7c0-1.7-1.4-2.7-3.1-3.2
	l-1.2,1.9c1,0.2,1.6,0.6,1.6,0.9c0,1.1-7.7,1.6-14,1.7c-6.3,0.1-14.6-0.7-14.6-1.8c0-0.2,0.3-0.4,0.9-0.6l-1.2-1.9
	c-1.3,0.6-2.3,1.4-2.3,2.9c0,0.8,0.3,1.9,0.9,2.4c2.3,2.1,8.1,2.2,16.2,2.1C194.1,155.1,196.9,154.5,196.9,154.4L196.9,154.4z"/>
</svg>
