<svg xmlns="http://www.w3.org/2000/svg" width="684.595" height="686.494" viewBox="0 0 684.595 686.494">
  <g id="favicon" transform="translate(3280.451 -17354.795)">
    <g id="グループ_36992" data-name="グループ 36992" transform="translate(-3280.451 17354.795)">
      <path id="パス_119047" data-name="パス 119047" d="M649.473,377.563c.294-3,2.526-5.854,2.736-8.847.217-3.015-2.835-6.2-2.7-9.2s3.7-5.92,3.754-8.924.147-6.074.125-9.082-3.28-5.968-3.383-8.972,2.6-6.162,2.412-9.163-2.464-5.876-2.725-8.869,1.107-6.177.768-9.167-.842-6-1.258-8.975-.029-6.129-.526-9.1-1.96-5.806-2.53-8.758-2.118-5.729-2.765-8.667-2.022-5.707-2.739-8.63.721-6.424-.074-9.325-2.07-5.71-2.941-8.593-2.192-5.648-3.133-8.5-4.136-4.938-5.151-7.769-1.7-5.758-2.783-8.56.449-6.677-.706-9.457-2.489-5.53-3.714-8.28-2.412-5.56-3.7-8.277-3.824-4.861-5.184-7.541-2.361-5.578-3.787-8.229-2.033-5.791-3.526-8.405-4.478-4.379-6.034-6.953-3.217-5.089-4.839-7.626-3.372-4.99-5.056-7.483-3.188-5.115-4.934-7.563-4.912-3.846-6.718-6.254-2.967-5.273-4.835-7.637-2.971-5.331-4.894-7.644-2.916-5.46-4.9-7.725-4.155-4.412-6.2-6.622-6.258-2.361-8.358-4.519-3.225-5.254-5.376-7.357-3.147-5.453-5.353-7.5-5.471-2.96-7.729-4.945-5.46-2.853-7.773-4.773-2.651-6.31-5.012-8.17-4.725-3.82-7.141-5.615-4.846-3.662-7.31-5.39-6.99-.441-9.5-2.1-4.159-4.622-6.714-6.21-5.184-3.052-7.784-4.567-4.247-4.791-6.887-6.229-6.894.158-9.578-1.2-4.552-4.368-7.277-5.648-5.446-2.6-8.207-3.8-5.541-2.39-8.339-3.5-5.824-1.625-8.659-2.651-5.659-2.041-8.519-2.982-6.045-.761-8.935-1.61-5.872-1.184-8.788-1.941-5.482-2.787-8.424-3.449-5.74-1.945-8.7-2.508-5.964-.879-8.946-1.346-5.813-2.019-8.806-2.394-6.041-.438-9.045-.71-6.063.081-9.078-.092-6.111,1.743-9.126,1.662S336.156-.011,333.138,0s-6.048,1.434-9.067,1.537-6.019.71-9.031.9-6.023.478-9.027.768-6.133-.346-9.126.037-5.894,1.57-8.88,2.044-6.3-.776-9.266-.213S273.079,7.7,270.13,8.354s-5.405,3.32-8.332,4.063-5.927,1.059-8.832,1.89-6.688-1.217-9.567-.3-4.648,5.17-7.5,6.174-6.365.132-9.192,1.213-5.46,2.618-8.251,3.78-5.14,3.295-7.9,4.537-6.295.78-9.019,2.1-5.828,1.93-8.512,3.324-5.5,2.633-8.144,4.1-3.636,5.813-6.236,7.357-6.048,1.658-8.608,3.272-4.912,3.537-7.427,5.218-4.648,3.89-7.118,5.633-6.291,1.64-8.714,3.456-3.39,5.526-5.762,7.4-4.846,3.592-7.17,5.53-5.166,3.254-7.438,5.251-4.8,3.725-7.019,5.776-4.107,4.467-6.276,6.578-3.25,5.28-5.365,7.446-5.008,3.548-7.067,5.769-3.725,4.765-5.729,7.034-2.953,5.39-4.9,7.707-6.585,2.416-8.472,4.78-3.545,4.942-5.376,7.357-3.265,5.129-5.034,7.585-4.273,4.423-5.982,6.924-.666,6.821-2.313,9.361-3.761,4.736-5.346,7.317-2.522,5.5-4.045,8.111-2.8,5.313-4.262,7.964-2.805,5.3-4.2,7.99-4.6,4.427-5.927,7.148-1.25,6.085-2.511,8.836-4.9,4.431-6.1,7.214c-1.191,2.765-.978,6.148-2.107,8.957s-3.313,5.206-4.376,8.045-1.618,5.857-2.611,8.718.246,6.438-.68,9.321S18.847,254,17.99,256.9s-3.769,5.2-4.556,8.126-2.184,5.692-2.9,8.637,1.03,6.435.382,9.395-3.35,5.468-3.931,8.442-.82,6.008-1.331,8.994.978,6.254.541,9.255-2.791,5.71-3.158,8.722c-.364,2.993.636,6.144.338,9.159s-.824,5.993-1.044,8.983c-.224,3.03-2.177,5.942-2.324,8.939-.151,3.033,2.475,6.151,2.4,9.148-.074,3.037-1.43,6.023-1.43,9.019,0,3.041-.728,6.078-.643,9.078.081,3.037,1.787,5.982,1.949,8.979.165,3.037-2.383,6.247-2.136,9.24.25,3.026,1.107,6.019,1.434,9,.335,3.019,1.783,5.9,2.2,8.872.423,3.008.93,5.986,1.434,8.95.507,3-.158,6.21.434,9.152.6,2.978,1.769,5.846,2.452,8.773.691,2.956,2.519,5.615,3.291,8.519.783,2.93-.4,6.427.471,9.306.875,2.9,5.059,4.74,6.019,7.589.963,2.872,1.769,5.736,2.82,8.549,1.059,2.842,1.059,6.052,2.2,8.836s2.037,5.7,3.272,8.446,1.912,5.791,3.239,8.49c1.335,2.717,3,5.273,4.423,7.927s2.9,5.313,4.416,7.92,4.1,4.57,5.7,7.126S47.99,523,49.674,525.5s1.269,6.46,3.037,8.9,4.111,4.486,5.96,6.869,4.644,3.989,6.574,6.306,3.986,4.486,6,6.736,3.765,4.7,5.85,6.876,4.085,4.412,6.243,6.523,4.184,4.328,6.413,6.361,4.857,3.581,7.155,5.541,3.835,4.806,6.2,6.692,5.026,3.357,7.446,5.166,3.839,5.015,6.313,6.751,6.17,1.658,8.7,3.309,4.931,3.456,7.512,5.026,5.39,2.688,8.023,4.181,5.041,3.306,7.718,4.714,5.46,2.526,8.177,3.857,5.173,3.129,7.927,4.379,5.868,1.577,8.659,2.747,4.773,4.284,7.6,5.372c2.805,1.081,6.155.743,9.012,1.75,2.835,1,5.254,3.3,8.133,4.228s5.854,1.541,8.758,2.394c2.886.842,6.28-.1,9.207.673,2.908.765,5.137,4.342,8.086,5.037,2.927.688,6.556-1.7,9.52-1.081,2.942.61,5.916.938,8.9,1.474,2.96.54,5.434,4.015,8.427,4.482,2.971.46,6.049.5,9.053.89,2.982.386,6.078.048,9.093.368,2.989.316,6.085-.382,9.108-.14,3,.246,5.861,2.828,8.887,3,3.008.173,6.078-.243,9.086-.132s6.067-1.015,9.078-.967,6.03.518,9.038.5,6.071,1.21,9.078,1.129,6.019-1.114,9.023-1.258,6.1.566,9.1.357,5.806-3.148,8.8-3.42,6.192,1.287,9.177.948,6.074-.217,9.056-.621,5.655-3.034,8.626-3.5,5.751-1.974,8.711-2.508,6.589,2.335,9.538,1.732,5.784-1.912,8.718-2.585,5.791-1.783,8.707-2.519,5.519-2.71,8.416-3.511,6.067-.709,8.95-1.585,5.243-3.353,8.1-4.3,5.776-1.644,8.608-2.658,5.519-2.372,8.325-3.456,6.46-.077,9.236-1.232,4.876-3.92,7.622-5.144,5.843-1.713,8.552-3.011,4.537-4.379,7.214-5.747,5.534-2.339,8.174-3.78,5.045-3.232,7.644-4.75,6.063-1.552,8.626-3.14,5.251-2.975,7.766-4.629,4.751-3.728,7.218-5.457,5.677-2.452,8.089-4.25,3.1-5.843,5.453-7.714,5.765-2.43,8.067-4.375,4.133-4.412,6.376-6.424,4.75-3.71,6.931-5.787,4.335-4.177,6.446-6.324,3.916-4.57,5.96-6.78,5.236-3.408,7.21-5.684,1.724-6.394,3.625-8.733,4.776-3.857,6.6-6.254,3.107-5.159,4.853-7.619,5.137-3.769,6.8-6.288c1.658-2.5,1.143-6.4,2.728-8.964s5.861-3.511,7.361-6.133c1.493-2.6,2.486-5.545,3.9-8.211s.471-6.5,1.8-9.214,2.567-5.383,3.809-8.137c1.232-2.732,4.478-4.6,5.629-7.394,1.144-2.772,2.533-5.49,3.6-8.324,1.055-2.8.037-6.368,1.011-9.229.967-2.839,2.243-5.563,3.129-8.457.879-2.864,3.408-5.269,4.206-8.185.791-2.89,2.276-5.659,2.989-8.6.7-2.908.327-6.118.956-9.082.621-2.93.283-6.074.824-9.056.537-2.945-.456-6.133,0-9.13.452-2.96,1.338-5.839,1.713-8.847.375-2.975,1.555-5.854,1.853-8.872" transform="translate(0 0)" fill="#fff3a7"/>
      <path id="パス_119048" data-name="パス 119048" d="M669.129,361.255c.066-3.067.107-6.148.081-9.192a25.732,25.732,0,0,0-.875-5.839,18.767,18.767,0,0,1-.592-3.313,21.183,21.183,0,0,1,.313-3.478,28.251,28.251,0,0,0,.386-5.743,36.331,36.331,0,0,0-.868-5.5,32.174,32.174,0,0,1-.632-3.589c-.1-1.246-.081-2.5-.066-3.754a43.944,43.944,0,0,0-.176-5.453c-.327-2.894-.732-5.791-1.144-8.674l-.059-.438c-.176-1.25-.291-2.508-.412-3.769-.169-1.794-.342-3.592-.636-5.361s-.724-3.53-1.155-5.284c-.3-1.228-.607-2.456-.842-3.684-.338-1.772-.816-3.522-1.294-5.269-.335-1.213-.669-2.423-.934-3.636-.39-1.794-.89-3.559-1.39-5.321-.338-1.18-.673-2.364-.967-3.556a27.46,27.46,0,0,1-.529-3.611,34.359,34.359,0,0,0-.9-5.493c-.5-1.824-1.081-3.629-1.662-5.438-.36-1.11-.717-2.221-1.052-3.331-.551-1.838-1.184-3.659-1.82-5.475-.371-1.077-.746-2.151-1.1-3.239a33,33,0,0,0-2.305-5.078,25.742,25.742,0,0,1-1.555-3.287c-.386-1.063-.75-2.129-1.114-3.2-.625-1.816-1.25-3.633-1.938-5.416a21.885,21.885,0,0,1-.838-3.372,27.9,27.9,0,0,0-1.515-5.567c-1.011-2.441-2.089-4.861-3.166-7.266l-.515-1.147c-1.239-2.794-2.493-5.6-3.8-8.365a53.076,53.076,0,0,0-2.607-4.67c-.662-1.1-1.327-2.188-1.908-3.335-.526-1.041-1.033-2.088-1.541-3.14-.824-1.7-1.651-3.4-2.548-5.067-.6-1.11-1.132-2.261-1.673-3.4-.769-1.633-1.541-3.261-2.427-4.813a42.943,42.943,0,0,0-3.07-4.5c-.75-1-1.511-2-2.155-3.07-1.585-2.618-3.221-5.2-4.861-7.758-.566-.89-1.166-1.758-1.75-2.64-.43-.684-.842-1.379-1.269-2.066l-4.376-6.9-2.2-3.449a32.9,32.9,0,0,0-2.872-3.732c-.949-1.1-1.8-2.044-2.482-2.9-.588-.717-1.342-1.908-2.125-3.052l-2.291-3.394-2.192-3.184-2.2-3.261-1.276-1.82-1.3-1.721c-1.309-1.721-2.684-4.085-4.773-6.7l-5.427-6.295a25.163,25.163,0,0,0-3.677-3.655l-3.265-2.478a11,11,0,0,1-1.868-1.861l-2.419-2.978-1.493-1.765-1.552-1.647c-.632-.68-1.35-1.57-2.206-2.633a46.908,46.908,0,0,0-3.133-3.589,39.388,39.388,0,0,0-3.787-3.269l-3.026-2.353-1.324-1.155c-.662-.574-1.313-1.092-1.934-1.566l-3.32-2.456-1.287-1.015a5.8,5.8,0,0,1-.735-.7c-.493-.533-1.184-1.456-2.155-2.669-.489-.607-1.048-1.276-1.728-2-.349-.36-.721-.732-1.132-1.107s-.938-.8-1.129-.941c-4.3-3.423-8.641-6.784-13.094-10l-.831-.614c-.29-.213-.463-.36-1.074-.757a21.067,21.067,0,0,0-2.842-1.548c-1.732-.779-3.059-1.224-3.949-1.61a7.4,7.4,0,0,1-.934-.456c-.07-.037-.449-.294-.872-.607-.8-.6-1.75-1.39-2.883-2.305a39.7,39.7,0,0,0-4.026-2.9l-3.53-2.14L496,45.332l-1.294-.809-1.276-.927c-.956-.728-2.1-1.651-3.57-2.647a25.3,25.3,0,0,0-2.522-1.522,21.85,21.85,0,0,0-3-1.28c-1.805-.614-3.221-.927-4.181-1.21a10.643,10.643,0,0,1-1.059-.357l-.3-.136-.559-.3c-1.6-.86-3.949-2.75-7.494-4.438L463.211,28.3c-5.067-2.173-10.148-4.317-15.4-6.023l-7.821-2.706-3.953-1.357c-1.647-.526-3.166-.886-4.537-1.206l-3.636-.86-3.828-.945-4.023-.978-1.945-.474-1.53-.434-3.864-1.246c-1.375-.456-3.438-.919-4.6-1.18L400,9.066l-8.177-1.261c-2.346-.3-4.552-.89-7.769-1.452-.754-.125-1.68-.265-2.4-.331l-2.063-.176L375.466,5.5c-2.747-.265-5.508-.283-8.262-.375L362.964,5a35.127,35.127,0,0,0-4.982.272c-1.4.154-2.555.294-3.449.331a7.879,7.879,0,0,1-1.077-.007c-.371-.026-.849-.1-1.4-.195-1.121-.195-2.548-.537-4.394-.772a21.934,21.934,0,0,0-3.026-.165c-.875.018-1.7.081-2.475.151-1.559.143-2.96.349-4.2.5l-1.739.195-1.824.154q-8.207.7-16.384,1.577l-8.181.746c-2.743.1-5.394.938-8.093,1.375a41.475,41.475,0,0,1-7.42,1.063,38.817,38.817,0,0,0-4.728.588,39.39,39.39,0,0,0-4.515,1.239l-3.622,1.166-1.993.533c-.831.243-1.6.511-2.316.78l-3.721,1.485c-.537.2-1.026.371-1.482.507l-1.916.522L262.452,19.1a8.632,8.632,0,0,1-1.2.232c-.552.074-1.133.129-1.736.188a26.856,26.856,0,0,0-5.776,1,24.351,24.351,0,0,0-5.376,2.669,17.5,17.5,0,0,1-2.919,1.566,31.894,31.894,0,0,1-3.545.919,37.265,37.265,0,0,0-5.39,1.5c-1.827.7-3.622,1.482-5.416,2.265-1.026.449-2.048.893-3.078,1.324-1.68.7-3.3,1.53-4.92,2.364-1.114.577-2.228,1.155-3.379,1.673a32.34,32.34,0,0,1-3.478,1.254,38.045,38.045,0,0,0-5.184,1.96c-1.118.541-2.265,1.033-3.409,1.53-1.684.732-3.372,1.463-4.99,2.309L200.4,43c-1.986,1.022-3.978,2.044-5.931,3.129a25.691,25.691,0,0,0-4.7,3.589,19.011,19.011,0,0,1-2.636,2.133c-1.074.632-2.21,1.155-3.346,1.688a42.656,42.656,0,0,0-4.865,2.537c-1.717,1.081-3.4,2.225-5.074,3.372L171.273,61.2c-1.548,1.033-3.037,2.147-4.526,3.265-.967.724-1.938,1.452-2.923,2.151a27.274,27.274,0,0,1-3.144,1.791,26.324,26.324,0,0,0-8.983,6.725,26.665,26.665,0,0,1-2.6,2.511l-1.861,1.46c-1.794,1.4-3.592,2.809-5.335,4.265-.963.8-1.96,1.559-2.96,2.32-1.445,1.1-2.894,2.21-4.262,3.408-.842.743-1.7,1.467-2.552,2.2-1.482,1.261-2.967,2.526-4.4,3.85-1.412,1.305-2.769,2.669-4.122,4.037-.805.816-1.614,1.629-2.438,2.434a48.744,48.744,0,0,0-3.592,4.034c-.809.982-1.61,1.971-2.493,2.875s-1.835,1.754-2.776,2.607c-1.338,1.206-2.673,2.419-3.9,3.739-1.305,1.4-2.544,2.864-3.784,4.324-.746.879-1.493,1.761-2.247,2.618a53.281,53.281,0,0,0-3.3,4.258c-.743,1.033-1.482,2.07-2.3,3.044a17.17,17.17,0,0,1-2.511,2.173,24.341,24.341,0,0,0-4.409,4.056c-1.316,1.647-2.589,3.35-3.857,5.048L84.3,142.689c-1.144,1.511-2.228,3.074-3.313,4.64-.666.963-1.331,1.923-2.011,2.872-.743,1.026-1.537,2.019-2.331,3.015-1.125,1.412-2.247,2.828-3.265,4.317a25.806,25.806,0,0,0-2.592,5.273,18.478,18.478,0,0,1-1.423,3.1c-.666,1.026-1.364,2.033-2.063,3.044-1.044,1.511-2.088,3.022-3.052,4.589-.945,1.541-1.8,3.133-2.658,4.725-.592,1.107-1.184,2.214-1.82,3.3-1.085,1.872-2.118,3.769-3.151,5.666l-1.294,2.368c-1.474,2.684-2.894,5.383-4.306,8.1a30.785,30.785,0,0,1-1.982,3.118,37.389,37.389,0,0,0-2.9,4.721,47.616,47.616,0,0,0-2.015,5.015c-.427,1.2-.846,2.4-1.371,3.545a23.972,23.972,0,0,1-1.842,3.041,30.282,30.282,0,0,0-2.861,4.931,48.439,48.439,0,0,0-1.78,5.107c-.368,1.221-.732,2.441-1.206,3.614s-1.037,2.339-1.592,3.493c-.776,1.618-1.548,3.239-2.18,4.916-.643,1.728-1.217,3.489-1.783,5.251-.375,1.158-.75,2.32-1.151,3.475a33.417,33.417,0,0,0-1.269,5.434,27.657,27.657,0,0,1-.772,3.574c-.938,2.912-1.857,5.821-2.725,8.762a29.142,29.142,0,0,1-1.357,3.4,35.952,35.952,0,0,0-1.982,5.214c-.324,1.21-.691,2.412-1.059,3.614-.526,1.732-1.048,3.464-1.482,5.229A31.653,31.653,0,0,0,17,288.743a24.835,24.835,0,0,1-.393,3.6A29.8,29.8,0,0,1,15.5,295.85a36.1,36.1,0,0,0-1.588,5.313c-.39,2-.713,4.026-1.037,6.048l-.493,3.03a37.918,37.918,0,0,0-.423,5.479c-.011.445-.029.864-.044,1.287l-.037.654a16.787,16.787,0,0,1-.493,3.085,55.817,55.817,0,0,0-1.993,8.5c-.338,3.192-.261,5.909-.515,8.071l-.945,8.041c-.18,1.522-.243,2.254-.482,3.489L6.676,352.9c-.125.769-.239,1.585-.316,2.456a21.579,21.579,0,0,0-.051,2.8c.085,1.765.316,3.25.452,4.46a13.828,13.828,0,0,1,.11,2.912c-.07,1.085-.221,2.294-.382,3.651s-.331,2.857-.39,4.515l-.154,4.217c-.026,2.78-.419,5.232-.026,8.74a46.976,46.976,0,0,1,.614,6.953c-.04,1.684-.916,4.909-.57,8.854l.886,8.174c.272,3.092.96,6.155,1.331,8.424l1.132,7.843c.456,2.993.658,4.6.9,7.6a41.973,41.973,0,0,0,.654,4.659l.916,4.023L12.7,447.2c.283,1.324.761,3.177,1.18,4.486a45.96,45.96,0,0,1,1.849,6.7c.408,2.155.335,5.2,2.008,9.6,1.728,3.857,3.283,5.9,3.368,6.648l2.6,7.861.574,1.721.522,1.7c.353,1.21.732,2.581,1.232,4.092.246.75.537,1.559.849,2.346l.768,1.923,1.537,3.85,3.162,7.666,1.61,3.824,1.912,3.681c1.276,2.453,2.544,4.912,3.89,7.328l1.993,3.64,1,1.824c.445.776.893,1.493,1.335,2.162l4.423,6.46,4.754,6.8c.643.846,1.449,3.317,3.5,6.865.272.441.57.894.893,1.353l.654.846L59.6,552.2l2.563,3.272,1.283,1.633c.522.677,1.077,1.353,1.6,1.956l2.9,3.181,1.177,1.309,1.166,1.364L73,568.066c3.636,4.181,7.218,8.416,11.068,12.406,3.817,4.023,7.747,7.938,11.807,11.707l6.328,5.394c1.463,1.25,3.239,3.236,5.824,5.512l1.015.849.835.636,1.658,1.25,3.32,2.5,1.662,1.246c.32.25.643.515,1.033.86l2.89,2.655a31.664,31.664,0,0,0,4.438,3.408c1.7,1.059,3.192,1.776,4.361,2.364a24.017,24.017,0,0,1,2.574,1.4l3.416,2.239c4.552,3.169,9.483,5.714,14.252,8.523,2.4,1.375,4.762,2.831,7.207,4.125l7.42,3.728,7.394,3.78c2.482,1.217,5.115,2.1,7.666,3.162l1.927.765a11.493,11.493,0,0,1,1.037.507l3.306,1.9c.71.4,1.5.827,2.4,1.246a30.036,30.036,0,0,0,2.805,1.129c1.747.6,3.287.993,4.578,1.335a29.28,29.28,0,0,1,6.082,2.118c1.191.529,2.585,1.169,4.247,1.791,1.923.721,2.953.934,4.35,1.375l3.975,1.173,1.989.585c.783.232,1.9.518,2.736.688,3.46.655,6.049.927,6.832,1.236.923.173,3.331,1.82,7.96,3.188,5.14,1.232,8.405.64,9.553.908l7.078,1.283,2.033.375.555.107.364.1c.618.173,1.669.6,3.2,1.166.768.279,1.651.588,2.677.875.511.143,1.074.276,1.651.4l.912.165.537.066,4.1.522c2.732.357,5.464.695,8.211.9,2.743.224,5.486.537,8.236.636l4.125.188,2.063.1a8.939,8.939,0,0,1,1.239.1c1.408.132,4.717,1.283,8.931,1.467l8.229.14,2.449.026,2.386-.081,3.85-.21,1.592-.015,2.059.04,4.111.081,3.7.055,3.739.2a42.55,42.55,0,0,0,4.89.07l4.1-.342c2.732-.246,5.464-.478,8.211-.489l4.114-.1,1.026-.029a11.736,11.736,0,0,0,1.265-.073,27.506,27.506,0,0,0,3.074-.5c1.8-.4,3.133-.813,4.1-1.048a8.344,8.344,0,0,1,2.1-.32c1.7-.125,4.857.228,8.78-.228l8.177-.886a25.04,25.04,0,0,0,2.677-.423c.96-.21,1.809-.441,2.57-.662l3.578-1.055c.515-.129.585-.147,1.224-.265.849-.143,1.658-.305,2.419-.471l4.067-.989c1.107-.287,2.526-.562,2.526-.562a26.987,26.987,0,0,1,3.059,0,25.9,25.9,0,0,0,6.111-.482l3.982-1.041,7.957-2.122,3.971-1.081,2.019-.555c.864-.232,1.673-.485,2.427-.739l3.975-1.434,1.592-.555c.412-.147,1.037-.305,1.743-.485l8-2.088c3.629-1.206,6.1-2.629,7.854-3.276l7.446-2.655c2.6-.86,5.093-2.041,7.641-3.052a32.079,32.079,0,0,1,6.644-2.28,32.05,32.05,0,0,0,5.06-1.677,39.676,39.676,0,0,0,4.361-2.317c1.213-.728,2.221-1.346,3.07-1.791l.643-.323.938-.416,1.883-.835,3.754-1.662,1.923-.861c.864-.438,1.644-.893,2.346-1.338,1.4-.893,2.552-1.735,3.519-2.394l1.3-.864.6-.353.9-.489,7.229-3.9,6.979-4.353,1.449-.886,1.5-.794c1.11-.555,2.408-1.151,3.85-1.934.7-.375,1.519-.868,2.18-1.3l1.713-1.129,3.419-2.269c2.32-1.449,4.467-3.155,6.659-4.791l3.247-2.441c.857-.643,1.886-1.305,3.019-2.03s2.383-1.515,3.677-2.471a22.648,22.648,0,0,0,2.085-1.706c.669-.625,1.232-1.232,1.747-1.805l2.515-2.9a12.81,12.81,0,0,1,.967-.949q.579-.485,1.294-1l3.1-2.162a32.2,32.2,0,0,0,2.975-2.18c1.427-1.206,2.783-2.493,4.137-3.78.864-.827,1.732-1.651,2.622-2.449.805-.721,1.618-1.427,2.434-2.136,1.5-1.3,3-2.6,4.434-3.975q3.331-3.177,6.563-6.449c1.467-1.489,2.868-3.037,4.269-4.589l1.971-2.162c.838-.9,1.761-1.728,2.68-2.559a45.263,45.263,0,0,0,3.934-3.879,27.921,27.921,0,0,0,3.2-4.835,21.511,21.511,0,0,1,1.846-2.938c.779-.963,1.636-1.864,2.485-2.769a52.652,52.652,0,0,0,3.607-4.122c1.151-1.515,2.213-3.089,3.276-4.666.651-.967,1.3-1.934,1.985-2.9a31.193,31.193,0,0,1,2.339-2.769,37.224,37.224,0,0,0,3.537-4.35,31.415,31.415,0,0,0,2.581-5.1,25.576,25.576,0,0,1,1.53-3.2,19.264,19.264,0,0,1,2.147-2.592,25.865,25.865,0,0,0,3.655-4.673c.952-1.666,1.824-3.394,2.692-5.122.511-1.022,1.026-2.044,1.559-3.052a30.274,30.274,0,0,0,2.067-5.343,24.526,24.526,0,0,1,1.2-3.324c1.346-2.747,2.64-5.5,3.9-8.314a27.81,27.81,0,0,1,1.768-3.122,34.175,34.175,0,0,0,2.692-4.971l1.033-2.46c.838-2.008,1.684-4.019,2.453-6.056a34.54,34.54,0,0,0,1.427-5.42,29.78,29.78,0,0,1,.868-3.534l.978-2.8c.691-1.949,1.382-3.9,2-5.905a35.981,35.981,0,0,1,1.327-3.438,41.025,41.025,0,0,0,1.9-5.181c.32-1.151.68-2.3,1.037-3.445.559-1.787,1.114-3.578,1.552-5.394.434-1.757.713-3.556.985-5.361.191-1.243.375-2.486.636-3.71.375-1.769.621-3.578.86-5.387.162-1.239.324-2.482.552-3.714a47.592,47.592,0,0,0,.57-5.376c.081-1.258.158-2.519.353-3.769.169-1.136.368-2.272.566-3.409.323-1.864.647-3.743.886-5.651.154-1.239.368-2.471.577-3.71.3-1.776.6-3.559.776-5.365l0,0a32.132,32.132,0,0,1,.662-3.644,37.777,37.777,0,0,0,.9-5.442,25.872,25.872,0,0,0-.423-5.868,18.689,18.689,0,0,1-.331-3.372,17.368,17.368,0,0,1,.662-3.261,24.441,24.441,0,0,0,1-5.846M552.075,583.3c-.632.4-1.294.846-1.967,1.349a23.1,23.1,0,0,0-2.03,1.732c-1.21,1.154-2.133,2.2-2.949,3.008a13.622,13.622,0,0,1-1.11,1.022,10.938,10.938,0,0,1-1.088.768c-.9.588-1.949,1.18-3.118,1.835s-2.445,1.364-3.791,2.247l-3.32,2.21c-2.2,1.452-4.339,2.971-6.655,4.236l-3.409,1.982-1.706.989c-.478.276-.824.445-1.32.68-.941.445-2.114.912-3.438,1.478l-2.114.96c-.761.371-1.559.816-2.055,1.088l-6.913,3.78L497.951,616l-.893.412-1.177.6c-.776.416-1.482.831-2.125,1.235-1.283.805-2.339,1.5-3.225,2a12.979,12.979,0,0,1-1.177.6l-1.783.7-3.67,1.434-1.835.713-.916.36-1.177.522c-1.563.743-2.868,1.485-3.982,2.081a23.927,23.927,0,0,1-2.8,1.353,18.824,18.824,0,0,1-2.618.695c-1.191.261-2.677.537-4.449,1.059-2.114.666-2.872,1.011-4.228,1.486-2.482.857-4.894,1.89-7.42,2.6L450.717,635l-1.883.577-.941.287-1.235.416c-3.284,1.217-5.548,2.383-7.052,2.772l-7.622,1.754c-.6.136-1.276.287-2.144.548l-2.225.706-3.629,1.206c-.522.158-1,.294-1.434.393l-1.871.459-3.817.941-7.644,1.827-3.824.9a9.531,9.531,0,0,1-1.9.011,41.831,41.831,0,0,0-4.986-.062,37,37,0,0,0-5.376.893l-3.769.846-1.533.283c-.68.1-1.93.342-2.714.544-1.743.434-3.1.875-4.159,1.162-.526.147-.971.254-1.324.327a11.727,11.727,0,0,1-1.3.165l-7.832.743c-1.419.206-3.64-.041-7.3.022a28.416,28.416,0,0,0-5.854.78l-3.692.9a7.636,7.636,0,0,1-.9.14l-1.724.029-3.934.044c-2.622-.026-5.236.166-7.85.375l-3.92.287a23.968,23.968,0,0,1-3.147-.081c-1.217-.084-2.644-.213-4.295-.279l-4.342-.121-3.934-.121-1.963-.066c-.651-.018-1.688-.018-2.43,0l-4.184.173-1.636.037-1.57-.037-7.861-.217c-1.18.037-3.008-.629-6.891-1.338a23.236,23.236,0,0,0-2.758-.313l-1.956-.11-3.912-.209c-2.611-.081-5.206-.375-7.81-.577-2.607-.18-5.2-.493-7.784-.831l-3.883-.478-.541-.074-.305-.074c-.265-.077-.651-.2-1.143-.382-.989-.349-2.416-.956-4.368-1.548-.489-.147-1.03-.287-1.581-.419l-1.416-.279-1.927-.353-3.846-.7-1.923-.349-1.335-.243c-.577-.1-1.147-.177-1.662-.224-4.177-.283-6.368-.158-6.457-.331-.577-.022-2.747-1.372-6.931-2.864-4.35-1.3-7.17-1.36-8.957-1.787-.482-.1-.666-.143-1.166-.291l-1.872-.548-3.747-1.1a34.122,34.122,0,0,1-6.493-2.353,50.107,50.107,0,0,0-9.089-3.162c-1.305-.335-2.361-.621-3.151-.894a9.161,9.161,0,0,1-.93-.364l-1.169-.6-3.7-2.048c-.757-.4-1.736-.864-2.6-1.213l-1.824-.688c-2.408-.96-4.9-1.736-7.251-2.85l-6.982-3.453-7.012-3.39c-2.313-1.18-4.537-2.522-6.81-3.776-4.5-2.574-9.178-4.868-13.472-7.788l-3.346-2.125a41.965,41.965,0,0,0-4.5-2.416c-1.243-.592-2.162-1.048-2.747-1.4a13.513,13.513,0,0,1-1.941-1.482l-3.078-2.739c-.621-.533-1.338-1.118-2.089-1.677l-1.574-1.143-3.147-2.287-1.57-1.147-.78-.566-.529-.434c-1.485-1.224-3.328-3.221-5.946-5.46l-6-4.949q-5.769-5.212-11.2-10.792c-3.651-3.677-7.049-7.6-10.512-11.461l-2.581-2.909L82.3,551.913l-1.541-1.662-2.563-2.728-.967-1.136L76,544.876l-2.449-3.026-1.228-1.511-.592-.732-.221-.324c-.757-1.029-1.622-3.739-3.967-7.372l-4.581-6.31-.57-.787-.68-1.041L60.4,521.906l-2.191-3.059-.8-1.25-.956-1.688-1.923-3.39c-1.3-2.25-2.522-4.541-3.758-6.828l-1.861-3.427-1.6-3.556-3.147-7.137-1.537-3.589-.768-1.791-.559-1.423-1.173-3.585-.717-2.136-.754-2.074-2.644-7.354c-1.647-4.365-3.6-6.56-3.96-7.648-.368-.61-.721-3.015-1.217-6.129a57.913,57.913,0,0,0-2.559-8.751c-.415-1.239-.629-1.978-.952-3.272l-.974-3.8-.978-3.8a28.235,28.235,0,0,1-.544-3.295c-.221-2.342-.779-6.045-1.21-8.343l-1.375-8.052c-.588-3-1.144-5.177-1.4-7.427L19.8,401.3c-.287-1.423.162-3.515.313-7.181a53.359,53.359,0,0,0-1.007-9.034c-.349-1.827-.14-4.758-.195-7.328l0-3.831c-.007-1.026.066-2.2.173-3.508s.232-2.772.276-4.372a26.583,26.583,0,0,0-.371-5.1c-.228-1.445-.438-2.614-.515-3.523a8.585,8.585,0,0,1-.033-1.224c.022-.467.066-.982.136-1.541l.588-3.887c.235-1.4.36-3.353.449-4.5l.621-7.972c.21-3.181.033-5.85.2-8,.074-1.875.791-4.081,1.467-7.192a28.073,28.073,0,0,0,.585-4.879l.011-.79c.018-.478.04-.963.055-1.434a29.145,29.145,0,0,1,.276-3.993l.511-3.122c.305-1.908.607-3.813.974-5.7a27.039,27.039,0,0,1,1.162-3.758,38.329,38.329,0,0,0,1.482-4.824,33.174,33.174,0,0,0,.618-5.184,23.556,23.556,0,0,1,.43-3.75c.386-1.57.86-3.114,1.331-4.659.4-1.316.8-2.629,1.151-3.945a26.611,26.611,0,0,1,1.434-3.666,37.406,37.406,0,0,0,1.835-4.7c.846-2.864,1.739-5.692,2.651-8.523a36.847,36.847,0,0,0,1.125-5.008,24.733,24.733,0,0,1,.835-3.758c.427-1.228.827-2.464,1.224-3.7.518-1.607,1.037-3.214,1.625-4.787.518-1.379,1.169-2.71,1.809-4.048.654-1.36,1.305-2.721,1.868-4.118.588-1.46,1.055-2.975,1.519-4.486a39.287,39.287,0,0,1,1.368-4,22.075,22.075,0,0,1,1.927-3.221,32.408,32.408,0,0,0,2.677-4.526c.654-1.43,1.191-2.919,1.724-4.409a38.129,38.129,0,0,1,1.552-3.916,27.532,27.532,0,0,1,2.107-3.368,39.822,39.822,0,0,0,2.658-4.247c1.375-2.644,2.754-5.273,4.184-7.88l1.32-2.412c.982-1.809,1.963-3.614,3-5.4.695-1.191,1.346-2.4,2-3.618.757-1.412,1.511-2.824,2.346-4.184.868-1.4,1.805-2.761,2.743-4.114.757-1.092,1.511-2.188,2.236-3.3a27.213,27.213,0,0,0,2.39-4.979,17.754,17.754,0,0,1,1.485-3.188c.868-1.272,1.838-2.478,2.8-3.684.9-1.133,1.8-2.261,2.644-3.431.721-1,1.423-2.019,2.125-3.033,1-1.441,1.993-2.883,3.048-4.273L94.5,146.73c1.195-1.607,2.394-3.214,3.64-4.773a16.3,16.3,0,0,1,2.592-2.272,25.458,25.458,0,0,0,4.159-3.75c.989-1.177,1.894-2.423,2.791-3.673.846-1.173,1.68-2.35,2.64-3.438.809-.912,1.6-1.842,2.383-2.772,1.136-1.338,2.272-2.68,3.467-3.967,1.015-1.092,2.125-2.088,3.236-3.089s2.21-2,3.254-3.067c1.092-1.118,2.1-2.327,3.092-3.541a39.614,39.614,0,0,1,2.809-3.184c.864-.846,1.717-1.7,2.57-2.563,1.246-1.257,2.493-2.519,3.787-3.717,1.324-1.224,2.7-2.394,4.074-3.563.893-.761,1.791-1.526,2.673-2.3,1.184-1.041,2.438-1.993,3.692-2.945,1.118-.853,2.236-1.7,3.32-2.607,1.669-1.39,3.375-2.725,5.082-4.059l1.9-1.5a35.707,35.707,0,0,0,3.7-3.515,24.461,24.461,0,0,1,2.809-2.673,24.371,24.371,0,0,1,3.357-1.941,36.507,36.507,0,0,0,4.409-2.559c1.066-.757,2.114-1.541,3.158-2.327,1.335-1,2.669-2,4.056-2.93l2.673-1.813c1.57-1.074,3.136-2.147,4.736-3.155a34.342,34.342,0,0,1,3.706-1.9c1.445-.677,2.89-1.36,4.258-2.169a27.214,27.214,0,0,0,4.335-3.379,17.2,17.2,0,0,1,2.758-2.2c1.85-1.026,3.736-2,5.622-2.964l2.3-1.184c1.4-.732,2.857-1.357,4.309-1.986,1.283-.555,2.57-1.114,3.824-1.724a30.677,30.677,0,0,1,3.806-1.4,41.543,41.543,0,0,0,4.592-1.68c1.316-.592,2.6-1.254,3.883-1.916,1.36-.7,2.714-1.408,4.129-2,1.088-.456,2.169-.927,3.25-1.4,1.64-.721,3.284-1.441,4.967-2.081a27.674,27.674,0,0,1,3.883-1.044,40.637,40.637,0,0,0,4.758-1.265,25.735,25.735,0,0,0,4.942-2.526,16.258,16.258,0,0,1,3.063-1.614,18.678,18.678,0,0,1,3.559-.548c.938-.088,1.952-.21,3-.375.415-.059.8-.1,1.243-.18l8.045-1.813,1.989-.456c.842-.206,1.629-.449,2.357-.691l3.817-1.338c.548-.18,1.052-.327,1.511-.438l1.916-.434c1.511-.371,2.864-.78,4.092-1.125a21.882,21.882,0,0,1,6.534-1.019c1.272-.044,2.739-.074,4.376-.235l1.246-.151.974-.154,1.945-.305c2.607-.313,5.159-1.026,7.8-1.007l7.869-.39q7.859-.518,15.708-.879l2.191-.1,2.269-.154,3.809-.305c.555-.026,1.074-.04,1.544-.029a7.915,7.915,0,0,1,.982.114c.813.132,1.989.445,3.5.783.757.165,1.6.338,2.563.463a22.566,22.566,0,0,0,2.938.184c1.787,0,3.3-.143,4.574-.228a22.531,22.531,0,0,1,3.052-.066l3.795.265c2.6.191,5.206.305,7.791.662l3.89.419,1.941.206c.607.07,1.007.147,1.574.254,2.059.39,5.045,1.21,8.012,1.677l7.7,1.357,7.585,1.9c1.441.364,2,.5,3.166.89l3.769,1.305c.721.243,1.5.485,2.324.717l1.952.522,3.776,1,3.96,1.074c1.541.427,2.945.732,4.184,1.026s2.331.566,3.239.864l3.647,1.272,7.38,2.589c4.953,1.622,9.751,3.677,14.535,5.751l7.111,3.265c1.342.577,3.239,2.052,6.284,3.853l1.213.662c.445.224,1.048.511,1.526.706a28.73,28.73,0,0,0,2.739.96l3.552,1a6.2,6.2,0,0,1,.71.272,9.359,9.359,0,0,1,.927.544c.757.489,1.724,1.232,2.916,2.111.6.438,1.257.916,2,1.4s1.684,1.033,2.129,1.3l3.379,1.978,3.386,1.978a23.233,23.233,0,0,1,2.511,1.769c.971.754,2.085,1.673,3.449,2.658a25.705,25.705,0,0,0,2.486,1.61,23.478,23.478,0,0,0,2.7,1.276l3.526,1.364a6.135,6.135,0,0,1,.695.346l1.371.971c4.284,3.008,8.472,6.148,12.615,9.347.934.507,2,2.177,4.743,5.085a21.8,21.8,0,0,0,2.25,1.989l1.927,1.412,3.228,2.217,1.228.923,1.761,1.419c1.269.971,2.43,1.765,3.412,2.471a20.876,20.876,0,0,1,4.618,4.291c.86,1,1.857,2.173,3.1,3.412l1.247,1.235,1.154,1.269,2.769,3.169a25.612,25.612,0,0,0,3.986,3.636l3.228,2.272a11.612,11.612,0,0,1,2.1,1.923l5.405,5.6c1.375,1.489,2.842,3.7,4.894,6.166l1.21,1.419,1.114,1.416,2.475,3.287c.989,1.235,1.787,2.269,2.563,3.309l2.379,3.158c.794,1.022,1.511,2.085,2.688,3.4,1.052,1.184,2.055,2.173,2.908,3.063a21.2,21.2,0,0,1,2.177,2.522l2.3,3.217,4.6,6.457c.846,1.21,1.673,2.43,2.519,3.64.184.283.375.552.555.838,1.6,2.493,3.192,4.993,4.725,7.534.827,1.36,1.78,2.651,2.736,3.934a34.122,34.122,0,0,1,2.357,3.412c.754,1.313,1.394,2.692,2.041,4.063.621,1.32,1.243,2.64,1.934,3.923.827,1.53,1.581,3.092,2.335,4.655.537,1.11,1.077,2.221,1.629,3.309.7,1.379,1.489,2.706,2.291,4.034.743,1.228,1.5,2.456,2.107,3.739,1.272,2.677,2.482,5.4,3.692,8.122l.518,1.158c1.037,2.324,2.078,4.655,3.059,7.019a19.332,19.332,0,0,1,.9,3.53,30.188,30.188,0,0,0,1.349,5.151c.643,1.666,1.221,3.35,1.8,5.037.379,1.118.765,2.236,1.158,3.328a35.572,35.572,0,0,0,2.158,4.659,24.016,24.016,0,0,1,1.614,3.46q.568,1.7,1.166,3.4c.585,1.669,1.166,3.339,1.677,5.037.353,1.18.735,2.357,1.114,3.534.533,1.655,1.07,3.317,1.526,4.978a25.327,25.327,0,0,1,.585,3.809,36.34,36.34,0,0,0,.779,5.045c.327,1.309.691,2.607,1.063,3.909.441,1.552.882,3.1,1.232,4.692.309,1.4.684,2.787,1.066,4.177.4,1.474.816,2.953,1.1,4.467.276,1.408.614,2.805.96,4.206.368,1.493.735,2.986.993,4.5s.393,3.07.541,4.614c.132,1.419.268,2.839.467,4.251l.062.441c.393,2.783.79,5.582,1.107,8.372a35.14,35.14,0,0,1,.107,4.155c-.018,1.592-.029,3.188.107,4.78a39.488,39.488,0,0,0,.827,4.89,28.042,28.042,0,0,1,.651,3.92,19.637,19.637,0,0,1-.305,3.644,31.4,31.4,0,0,0-.408,5.3,27.268,27.268,0,0,0,.868,5.372,17.192,17.192,0,0,1,.6,3.5c.022,2.956-.018,5.935-.077,8.913a16.257,16.257,0,0,1-.662,3.353,25.459,25.459,0,0,0-1,5.49,27.226,27.226,0,0,0,.445,5.449,17.564,17.564,0,0,1,.324,3.508,30.109,30.109,0,0,1-.684,3.931,41.324,41.324,0,0,0-.853,4.868c-.154,1.559-.419,3.1-.684,4.633-.235,1.394-.471,2.78-.64,4.166-.221,1.736-.518,3.449-.816,5.159-.21,1.206-.415,2.408-.6,3.614-.239,1.548-.346,3.114-.449,4.677a38.144,38.144,0,0,1-.423,4.177c-.257,1.4-.445,2.813-.629,4.221-.2,1.533-.4,3.063-.721,4.57-.305,1.43-.526,2.879-.746,4.324-.228,1.493-.448,2.986-.805,4.445-.386,1.6-.882,3.173-1.372,4.74-.393,1.261-.783,2.522-1.136,3.791a32.883,32.883,0,0,1-1.456,3.886,46.564,46.564,0,0,0-1.688,4.438c-.57,1.853-1.213,3.666-1.857,5.475l-1.015,2.908a38.425,38.425,0,0,0-1.221,4.843,26.006,26.006,0,0,1-.967,3.806c-.721,1.916-1.515,3.8-2.305,5.684l-1.052,2.522a25.986,25.986,0,0,1-1.9,3.431,37.082,37.082,0,0,0-2.43,4.361c-1.213,2.7-2.456,5.354-3.754,8a32.656,32.656,0,0,0-1.8,4.835,21.511,21.511,0,0,1-1.309,3.526c-.57,1.077-1.118,2.173-1.669,3.261-.783,1.559-1.559,3.114-2.416,4.611a17.422,17.422,0,0,1-2.25,2.758,27.331,27.331,0,0,0-3.372,4.21,33.369,33.369,0,0,0-2.265,4.607,22.5,22.5,0,0,1-1.669,3.408,27.287,27.287,0,0,1-2.548,3.078,40.369,40.369,0,0,0-3.129,3.754c-.732,1.026-1.434,2.07-2.14,3.114-.941,1.408-1.886,2.813-2.916,4.162a42.759,42.759,0,0,1-2.9,3.291c-1.022,1.088-2.044,2.184-2.982,3.339a30.031,30.031,0,0,0-2.864,4.434,19.414,19.414,0,0,1-1.971,3.081,36.154,36.154,0,0,1-3.041,2.964c-1.147,1.044-2.294,2.088-3.346,3.225l-2.048,2.247c-1.3,1.441-2.6,2.879-3.967,4.261q-3.111,3.16-6.317,6.214c-1.324,1.257-2.7,2.449-4.074,3.644-.857.746-1.714,1.489-2.559,2.247-.971.868-1.916,1.765-2.857,2.666-1.2,1.14-2.4,2.283-3.666,3.35a23.832,23.832,0,0,1-2.232,1.618Z" transform="translate(15.377 11.936)" fill="#595757"/>
      <path id="パス_119049" data-name="パス 119049" d="M103.174,53.114l.206,2.169-.618,4.129-.827,9.5-.412,1.754.618,3.614-.412,7.122.206,7.229.621,1.956v3.927l-.416,6.5c-.1,2.379-2.787,7.538-2.787,7.538s-3.1,2.375-4.026,2.375c-4.953,0-5.677-.721-5.677-4.747V99.053l1.136-8.468c0-.408.1-.82.1-1.338,0-2.166-.515-5.059-1.651-5.059a17.332,17.332,0,0,0-3.1.724l-8.155-1.445-7.122.618-8.464.1c-.93,0-2.063.621-2.063,1.14,0,1.754.927,3.92.927,5.571,0,11.045-3.611,16.932-7.74,16.932-2.375,0-4.956-3.927-4.956-3.927l-.415-3.508.415-6.707.721-3.3-.412-3.306.518-6.607.618-11.045,1.136-3.408.206-13.005,2.269-6.607a13.76,13.76,0,0,1,3.717-1.239c1.033,0,4.026,1.754,4.026,1.754V49.5l.415,1.136a4.351,4.351,0,0,1,.206,1.136c0,1.441-.724,2.989-.724,4.438,0,1.651-.206,3.923-.206,4.541l.206,4.85-.618,1.758.206,3.611,1.136,1.14,2.478.206,3.923-.618,2.475.309,13.421.2,4.956-.2a1.684,1.684,0,0,0,1.754-1.758l-.1-2.372.93-5.372.412-11.461c.309-4.125,3.1-8.258,5.986-8.258,3.511,0,5.574,2.066,5.574,4.442v.309Z" transform="translate(128.889 114.542)" fill="#4c4b3f"/>
      <path id="パス_119050" data-name="パス 119050" d="M117.253,110.268c-1.647,0-4.644-2.89-4.644-2.89l-1.235-3.306.309-3.92-1.033-2.379a30.362,30.362,0,0,1-2.379-6.813c-1.235-5.262-2.265-8.773-4.023-8.773-2.063,0-8.571,1.96-13.627,1.96-2.89,0-4.125.1-4.545,1.342l-1.445,3.1-.721,2.684-1.338,2.475-.93,2.478L78.851,99.84l-2.375,6.192a8.2,8.2,0,0,1-5.677,4.129c-2.166,0-5.887-3.3-5.887-6.295,0-2.894,3.309-8.361,4.133-9.6A44.4,44.4,0,0,1,70.9,87.967c1.346-2.89,3.817-7.019,3.817-7.019l4.857-9.292,3-8.361,1.647-2.787,3.717-8.155c1.96-4.339,3.614-9.086,8.468-9.086,3.817,0,5.574,1.758,8.358,7.847l7.332,17.344.721,3.4L117.874,82.8a12.291,12.291,0,0,1,1.96,3.408c1.14,3.2,1.037,6.093,2.169,8.464,1.342,3.2,2.688,5.986,2.688,7.435,0,2.68-5.166,8.155-7.438,8.155m-16.41-42.946-.522-1.857-2.372-4.236s-.309-2.372-1.441-2.372c-1.552,0-5.265,6.4-5.993,9.913a14.206,14.206,0,0,0-.412,2.68c0,.621.1.93.518.93l9.082-.621c1.349-.1,2.684-.518,2.684-1.03,0-.93-1.544-3.409-1.544-3.409" transform="translate(173.762 115.822)" fill="#4c4b3f"/>
      <path id="パス_119051" data-name="パス 119051" d="M121.812,57.231c-.1,0-2.993,3.409-2.993,3.409s-6.813-6.916-11.354-6.916c-4.232,0-7.023,3.1-8.052,4.335l.412,2.581,1.445,1.754,6.607,4.129L110.248,69l3.408,2.269L115.1,73.13l2.272,2.581,1.857,5.162,1.655,4.232a10.541,10.541,0,0,1,.721,3.923c0,8.461-9.806,16-17.756,16a45.583,45.583,0,0,1-9.909-1.239l-4.853-1.346L87.333,100.9c-1.136-.721-5.059-3.3-5.059-6.71,0-4.644,2.066-6.607,4.644-6.607,1.861,0,3.511,4.854,14.866,4.854,4.335,0,7.744-2.581,7.744-6.5a6.59,6.59,0,0,0-.618-2.372l-1.754-1.445L104.78,78.7l-3.1-1.445C96,74.366,87.951,66.626,87.951,59.092c0-7.126,5.471-11.667,5.471-11.667l4.545-2.169,2.475-1.338a35.664,35.664,0,0,1,5.368-.621c11.358,0,18.789,4.747,18.789,10.946,0,.614-1.857,2.162-2.787,2.989" transform="translate(220.238 115.899)" fill="#4c4b3f"/>
      <path id="パス_119052" data-name="パス 119052" d="M138.824,56.173c-1.14,0-4.648-.827-5.99-.827l-7.949-.1-1.754-.721-3.82-.107-2.375-.2a22.708,22.708,0,0,0-2.478-.107c-1.338,0-1.548.21-1.651.93L112.6,58.96l-1.132,2.787-.621,5.681c-.1,1.03-.206,1.857-.206,2.475,0,.93.206,1.235.827,1.235l5.059-.717,2.269.206,3.511-1.445,5.468.618c3.409.309,6.607,3.1,6.607,6.607,0,2.89-4.129,5.578-6.089,5.578h-.206l-4.956-.621-11.045.621-1.033.309-.724,1.03-1.235,1.03-.724,13.215c-.1,1.136-.927,3-.927,5.471,0,.93,0,1.651.408,1.86.93-.1,4.751-.518,6.71-.518,3.82,0,7.229-.206,8.258-.309l4.648-1.651,2.787.206,3.82-.206h.309c3.717,0,7.431,4.026,7.431,5.471,0,2.272-4.953,5.368-6.089,5.368h-.1l-1.136-.206-2.269,1.132-14.458.621s-13.314,3.1-16,3.1c-3.82,0-5.986-3.2-5.986-6.4v-.412l.515-11.773,1.243-3.092.721-9.5.824-1.758.309-8.777,2.066-13.005.518-12.178c.1-4.236,3.092-7.438,6.913-7.438h.309l2.787.21,2.169-.518,4.541.827,3.1-.518h8.983l5.883.621,5.265-.206c1.441,0,3.92,2.89,3.92,5.673a3.642,3.642,0,0,1-.511,2.07c-1.757,2.787-3.824,4.438-6.5,4.438" transform="translate(256.379 115.822)" fill="#4c4b3f"/>
      <path id="パス_119053" data-name="パス 119053" d="M163.087,64.441l-1.86,1.136-3.2.724c-3.511.515-7.95,2.478-7.95,4.438,0,1.239.93,4.228,2.89,8.468a34.852,34.852,0,0,1,2.478,10.218l4.648,12.593.2,3.4,1.033,3.2a5,5,0,0,1,.21,1.239c0,2.993-3.3,5.677-6.3,5.677-1.342,0-4.751-3.1-5.681-5.162l-1.338-3.3-1.14-6.3-1.133-2.787-.827-7.431-1.239-5.681-4.438-7.328-1.239-3.614-.824-.309-11.667,4.129L124.376,79.1l.2,4.644-.721,5.162.1,6.093-.721,3.3.412,2.169-.824,4.747-.206,8.468c-.1,3.092-2.169,7.122-4.85,7.122s-7.126-2.684-7.126-5.99v-.408l.724-9.192,1.754-9.082.206-10.634-.107-2.993,1.346-6.3.515-8.983,1.037-3.306.309-11.766-.309-3.717v-.618c0-5.162,6.5-5.368,7.328-5.368h.1l1.136,2.066,2.89,1.03-.621,13.215-.721,3.3c-.107.724-.415,1.342-.415,1.857a1.278,1.278,0,0,0,.415.934,1.439,1.439,0,0,0,.621.2,4.457,4.457,0,0,0,2.059-.824l3.614-1.033,2.066-1.03,6.089-1.342,18.892-8.155a5.494,5.494,0,0,1,2.169-.518c3.408,0,7.019,3.2,7.019,6.607,0,1.96-5.677,5.677-5.677,5.677" transform="translate(296.18 113.643)" fill="#4c4b3f"/>
      <path id="パス_119054" data-name="パス 119054" d="M177.816,88.689l-.827,2.269-5.681,6.92a28.661,28.661,0,0,1-20.333,8.365c-5.574,0-12.491-2.585-14.351-4.751l-2.578-3.2-1.037-.621c-2.68-1.342-5.78-11.045-5.78-19.51,0-15.281,9.086-23.54,9.086-23.54l1.239-1.754,2.372-1.758L142.4,48.53l2.478-.721,1.14-.721s8.979-3.82,17.447-3.82c7.427,0,20.024,11.667,20.024,21.885a50.352,50.352,0,0,1-5.677,23.536m-9.81-31.07-2.787-.21-4.129-1.857-5.368-.309H155.1c-5.681,0-8.88,4.133-12.387,8.773-2.791,3.817-4.232,7.538-4.232,11.667,0,13.215,3.1,18.579,12.7,18.579a18.3,18.3,0,0,0,9.909-2.993l1.757-2.993L165.84,85.9l1.338-2.269,1.14-1.033c.618-1.552,3.508-9.707,3.508-14.969,0-8.155-3.82-10.012-3.82-10.012" transform="translate(340.579 115.824)" fill="#4c4b3f"/>
      <path id="パス_119055" data-name="パス 119055" d="M105.461,95.591l-3.894-.11-5.89.666-4-.445H90.452c-6.449,0-7,5.115-7,6.115l.666,2.445-.331,5.67.776,6.449,1,3.666s.669,6.232.669,9.678c0,3.221-.445,8.229-.445,8.229l.11,4.776c0,9.453-5,17.9-7.225,17.9-2.894,0-5.449-4.666-6.56-7.446a8.505,8.505,0,0,1-.445-2.783,30.944,30.944,0,0,1,1.331-7.111c.335-1.221.669-4.339.89-5.673l-1-2.776.666-9.674v-3.449c0-2.445-1.89-4.331-1.89-8.115,0-3.89,1.11-7.225,1.11-9.56,0-2.555-1.11-4.335-3.111-4.335h-.224l-14.23,1.11c-.449,0-.779.11-1.224.11-4.114,0-5.67-2.221-5.67-6.89,0-3.228,2.89-5,5.894-5.89l2-.673,5.445.559,2.114-.779,7.449-.221,6.56-2.335,3.445-.11,10.895-.78,4.114-1,7.56-.11,5.225.11s.559,4.339.559,5.673c0,2-4.114,7.115-4.114,7.115" transform="translate(129.334 221.359)" fill="#4c4b3f"/>
      <path id="パス_119056" data-name="パス 119056" d="M125.544,93.112l.224,2.339L125.1,99.9l-.89,10.229-.445,1.89.665,3.886-.445,7.674.224,7.78.666,2.118v4.221l-.445,7c-.11,2.559-3,8.115-3,8.115s-3.335,2.559-4.335,2.559c-5.339,0-6.115-.776-6.115-5.115v-7.67l1.221-9.115c0-.449.11-.894.11-1.449,0-2.335-.555-5.445-1.776-5.445a18.725,18.725,0,0,0-3.335.776L98.416,125.8l-7.67.666-9.119.114c-1,0-2.225.665-2.225,1.224,0,1.886,1,4.221,1,6,0,11.9-3.89,18.234-8.339,18.234-2.559,0-5.339-4.225-5.339-4.225l-.445-3.78.445-7.225.78-3.559-.445-3.559.555-7.111.669-11.9,1.221-3.666.224-14.005,2.445-7.118a14.773,14.773,0,0,1,4-1.335c1.114,0,4.339,1.894,4.339,1.894v2.776l.445,1.221a4.808,4.808,0,0,1,.224,1.224c0,1.555-.779,3.225-.779,4.78,0,1.783-.224,4.228-.224,4.89l.224,5.229-.669,1.89.224,3.89,1.224,1.224,2.666.221,4.225-.666,2.669.335,14.45.221,5.339-.221a1.811,1.811,0,0,0,1.89-1.89l-.114-2.559,1-5.78.445-12.34C114.09,86.446,117.094,82,120.2,82c3.78,0,6,2.221,6,4.776v.335Z" transform="translate(177.432 219.498)" fill="#4c4b3f"/>
      <path id="パス_119057" data-name="パス 119057" d="M140.671,154.663c-1.78,0-5-3.111-5-3.111l-1.335-3.559.335-4.225-1.114-2.555A32.727,32.727,0,0,1,131,133.874c-1.335-5.67-2.445-9.45-4.335-9.45-2.221,0-9.229,2.111-14.675,2.111-3.114,0-4.449.114-4.894,1.449l-1.555,3.335-.78,2.89-1.445,2.666-1,2.673-3,3.886-2.559,6.67c-1,2.449-4.67,4.453-6.115,4.453-2.335,0-6.335-3.563-6.335-6.784,0-3.114,3.556-9,4.445-10.339a48.793,48.793,0,0,1,2-6.784c1.449-3.111,4.114-7.56,4.114-7.56l5.225-10,3.225-9.008,1.78-3,4-8.784c2.111-4.666,3.89-9.781,9.115-9.781,4.111,0,6,1.89,9,8.446l7.894,18.679.78,3.67,5.445,11.784a13.064,13.064,0,0,1,2.111,3.67c1.224,3.449,1.114,6.56,2.335,9.119,1.449,3.445,2.894,6.449,2.894,8,0,2.894-5.559,8.784-8,8.784m-17.679-46.248-.555-2-2.559-4.556s-.331-2.555-1.555-2.555c-1.666,0-5.67,6.894-6.446,10.674a15.119,15.119,0,0,0-.449,2.886c0,.669.114,1,.559,1l9.781-.666c1.449-.11,2.894-.559,2.894-1.11,0-1-1.669-3.67-1.669-3.67" transform="translate(225.673 220.874)" fill="#4c4b3f"/>
      <path id="パス_119058" data-name="パス 119058" d="M171.913,107.423l-.11,2.669-2.78,7.115-1.445,7-4.559,8.563-1.11,4.559-1.559,2.335-2.331,4.776c-1.666,3-4.784,6.563-6.56,6.563-3.225,0-4.67-2.78-6.449-5.229L134.67,132.992l-4.559-4.114-3.556-5.78-3.339-3.78-.776-2.449-1.114-1.441-1.11-.669a.668.668,0,0,0-.445-.11,1.96,1.96,0,0,0-1.78,2l.11,4.559-.552,7.446L114.991,140l-3.114,7.335a16.516,16.516,0,0,1-4.445,1.338c-2,0-4.228-4.114-4.228-4.114v-3.78l1.449-3.673-.11-1.776s3-16.123,3.335-21.348l.224-6.556c.11-2.894,1.886-4.559,2-6.229.224-2.669.224-7.894.224-7.894s3.225-5.111,6.115-5.111c1.666,0,5.115,1.886,5.115,1.886l2,7.674,10.225,15.344c3.445,5.115,6.115,7.446,10.34,12.229,2.114,2.441,2.78,7.115,6.115,7.115.666,0,1.224-1.224,1.335-2.335.221-2.111,1.335-2.89,2.445-5.225,2.666-5.339,6.335-17.682,6.335-17.682l.893-4.89,1.107-2.331c.114-.669.335-2.224.559-3.78.555-1.78,1.445-4.449,1.78-5.449.107-1.114.776-6.449,7-6.449,3.114,0,5.115,3.894,5.115,7.891a10.38,10.38,0,0,1-.665,3.784Z" transform="translate(276.263 225.65)" fill="#4c4b3f"/>
      <path id="パス_119059" data-name="パス 119059" d="M181.208,105.311l-2,1.224-3.445.78c-3.784.552-8.564,2.669-8.564,4.78,0,1.335,1,4.559,3.114,9.115a37.88,37.88,0,0,1,2.669,11l5,13.568.224,3.666,1.11,3.445a5.509,5.509,0,0,1,.224,1.338c0,3.225-3.559,6.115-6.784,6.115-1.445,0-5.111-3.335-6.115-5.559l-1.445-3.559-1.224-6.776-1.225-3-.886-8.008-1.335-6.111-4.78-7.894-1.335-3.894-.89-.335-12.56,4.449-1.449,1.445.224,5-.78,5.559.11,6.556-.776,3.559.441,2.338-.886,5.111-.224,9.119c-.11,3.335-2.331,7.67-5.221,7.67s-7.674-2.89-7.674-6.449v-.441l.779-9.9,1.886-9.784.224-11.45-.11-3.225,1.445-6.784.551-9.674,1.114-3.552.335-12.678-.335-4v-.662c0-5.559,7-5.78,7.894-5.78h.114l1.221,2.221,3.114,1.114L142.3,99.2l-.779,3.556c-.107.78-.441,1.445-.441,2a1.355,1.355,0,0,0,.441,1,1.562,1.562,0,0,0,.669.228,4.788,4.788,0,0,0,2.225-.894l3.89-1.11,2.221-1.11,6.56-1.449,20.352-8.78a5.945,5.945,0,0,1,2.331-.559c3.67,0,7.56,3.449,7.56,7.119,0,2.111-6.115,6.111-6.115,6.111" transform="translate(333.892 218.529)" fill="#4c4b3f"/>
      <path id="パス_119060" data-name="パス 119060" d="M134.506,93.679c.18-.213.2-.552.375-.768s.4-.382.57-.607.338-.438.5-.666.21-.518.364-.75.324-.445.467-.68.272-.478.408-.724.346-.438.471-.684.294-.474.408-.724.107-.566.21-.827.232-.507.32-.772.243-.511.32-.783.184-.529.246-.805-.074-.585-.022-.86.11-.541.143-.824.21-.541.232-.816-.151-.57-.147-.849.243-.563.232-.838-.132-.563-.162-.838-.143-.544-.191-.816.081-.6.015-.864-.309-.5-.393-.765-.184-.522-.29-.783-.143-.548-.268-.8-.331-.456-.478-.695-.32-.449-.489-.677-.18-.574-.371-.78c-.165-.184-.342-.371-.526-.541l-.074-.07c-.21-.184-.467-.327-.695-.5s-.489-.287-.732-.43a7.891,7.891,0,0,0-.721-.456c-.254-.121-.61.011-.875-.081s-.471-.371-.743-.441-.552-.132-.827-.18-.577.1-.86.07-.548-.066-.831-.07-.563-.239-.849-.224-.548.191-.827.224-.57,0-.849.048-.507.3-.783.364-.61-.107-.879-.026-.471.368-.735.467-.592.022-.849.136-.419.438-.669.559-.529.2-.772.335-.456.32-.695.471-.522.187-.743.342-.5.224-.721.386-.294.5-.507.673-.379.379-.585.559-.423.327-.621.515-.529.228-.721.419-.294.467-.482.666-.305.452-.489.651-.537.25-.71.452-.3.46-.471.673-.342.419-.511.632-.165.551-.331.768-.529.276-.691.5-.327.43-.485.651-.224.5-.379.728-.239.489-.393.713-.371.4-.526.621-.257.353-.4.574c-.063-.272-.07-.452-.132-.724s-.261-.515-.324-.787-.18-.529-.25-.8-.022-.57-.1-.838-.276-.5-.353-.772-.015-.577-.1-.842-.118-.548-.206-.813-.158-.54-.254-.8-.224-.518-.324-.776-.36-.456-.467-.717-.088-.57-.21-.82-.29-.478-.419-.728-.221-.515-.36-.754-.382-.419-.533-.654-.18-.548-.342-.776-.4-.393-.574-.61-.213-.552-.4-.757a1.408,1.408,0,0,0-.1-.107c-.154-.143-.331-.261-.485-.4l-.044-.044-.062-.059c-.184-.169-.39-.316-.577-.482-.206-.184-.463-.309-.68-.482l-.048-.044c-.165-.151-.276-.375-.438-.529l-.081-.066c-.232-.158-.537-.2-.776-.342s-.522-.2-.768-.324-.467-.313-.724-.419-.5-.243-.768-.331-.566-.018-.838-.081-.5-.331-.783-.371-.57.14-.849.125a8.186,8.186,0,0,0-.842-.062,8.067,8.067,0,0,0-.835.14c-.279.037-.592-.1-.868-.04s-.533.206-.805.29-.559.125-.824.232-.43.415-.684.541-.607.062-.853.206-.43.379-.665.54-.467.316-.688.493-.371.434-.581.621-.5.294-.7.5-.316.474-.5.688-.36.43-.533.654-.382.419-.537.651-.272.5-.415.739-.36.449-.485.7-.246.511-.357.772-.29.5-.386.765-.026.581-.1.849-.026.563-.088.838-.257.511-.3.787-.213.537-.246.816.007.563-.011.846.063.559.059.838-.11.563-.1.842.059.559.081.838-.007.563.026.842.077.559.125.835.283.515.342.787.011.57.081.842.077.563.158.827.4.46.493.721.195.522.3.779.114.555.224.809.129.555.246.809.335.46.463.706.246.493.382.732.335.441.474.677c.092.154.177.309.265.463A1.169,1.169,0,0,0,90.4,92a2.215,2.215,0,0,0,.206.393,1.715,1.715,0,0,0,.166.507.762.762,0,0,0,.129.14c.114.107.257.2.375.309a.733.733,0,0,1,.114.129c.162.228.221.526.382.746a1.168,1.168,0,0,0,.11.125c.129.118.283.21.412.327a.994.994,0,0,1,.1.114c.165.217.268.489.441.7a2,2,0,0,0,.169.184c.088.077.18.154.265.232.055.055.11.11.158.165.176.213.375.4.555.61s.287.482.471.688.346.43.533.636.294.478.482.677c.037.04.073.077.114.114.129.121.272.228.4.349.033.033.07.066.1.1.191.2.368.412.559.61l.022.022c.187.173.493.232.68.408l.018.018c.195.195.291.489.482.684s.368.415.563.607c.029.033.063.063.1.1.136.125.283.239.419.368l.085.081c.188.191.386.371.574.563s.294.467.482.658l.015.015c.188.173.5.221.688.393l.015.015c.191.191.393.371.581.559s.353.412.541.6.265.493.449.688.39.371.574.566.382.382.563.581l.018.015c.1.1.305.184.485.353a1.076,1.076,0,0,1,.136.151c.143.191.239.46.415.706.147.2.257.46.427.688a1.57,1.57,0,0,0,.151.165c.085.077.18.154.268.235a1.459,1.459,0,0,1,.162.176c.158.217.169.548.331.765s.268.482.434.695.349.423.515.632l.051.051c.176.162.449.232.61.382l.037.037c.188.213.272.5.445.68.191.195.331.416.485.559a.372.372,0,0,0,.07.059.693.693,0,0,0,.791.081c.213-.147.438-.287.666-.452.21-.151.478-.235.7-.4s.316-.463.533-.632.482-.243.7-.408.485-.25.7-.419.309-.474.522-.644.382-.39.592-.559.445-.313.651-.478.412-.353.618-.522.544-.188.746-.353.427-.335.629-.5.452-.3.658-.467.265-.533.471-.7.452-.305.658-.467.526-.21.732-.368.29-.522.5-.673c.224-.173.529-.221.732-.364.243-.173.449-.349.647-.478.232-.147.544-.169.776-.316s.39-.419.625-.566.449-.327.68-.478.489-.265.717-.416.408-.393.636-.548.6-.1.831-.257.3-.537.529-.695.489-.265.717-.423.566-.162.79-.324.4-.393.621-.559.478-.283.7-.449.4-.379.621-.548.4-.393.614-.563.393-.393.607-.57.423-.353.632-.537.438-.338.643-.526.43-.349.625-.541.415-.371.61-.566.426-.357.618-.559.4-.382.588-.588.375-.408.555-.621" transform="translate(232.062 178.817)" fill="#e88787"/>
      <path id="パス_119061" data-name="パス 119061" d="M97.091,152.888a10.417,10.417,0,0,1-2.294-.7c-.739-.283-1.467-.618-2.2-.956a8.277,8.277,0,0,1-2.783-1.673,12.06,12.06,0,0,1-1.563-2.625c-.39-.735-.945-1.4-1.313-2.166s-.651-1.555-.971-2.342-.489-1.607-.746-2.416a23.979,23.979,0,0,1-.629-2.441,21.027,21.027,0,0,1-.386-2.489,19.49,19.49,0,0,1-.007-2.78,21.093,21.093,0,0,1,.2-2.783,21.541,21.541,0,0,1,.779-2.688,19.463,19.463,0,0,1,1.088-2.559,17,17,0,0,1,1.4-2.4,16.317,16.317,0,0,1,1.827-2.118,14.721,14.721,0,0,1,2.188-1.724,13.881,13.881,0,0,1,2.464-1.3,13.358,13.358,0,0,1,2.666-.805,9.523,9.523,0,0,1,2.853-.154,7,7,0,0,1,2.691.923,6.6,6.6,0,0,1,2.088,1.916,11.562,11.562,0,0,1,1.6,2.831c.364,1,.5,2.114.768,3.173.221.849.452,1.706.647,2.581s.324,1.743.482,2.625.382,1.739.489,2.625.3,1.769.346,2.658-.136,1.783-.162,2.677.085,1.791-.026,2.677a18.706,18.706,0,0,1-.691,2.57,17.8,17.8,0,0,1-.743,2.559,16.069,16.069,0,0,1-1.338,2.305,13.8,13.8,0,0,1-1.588,2.133,11.165,11.165,0,0,1-2.055,1.7,8.609,8.609,0,0,1-2.434,1.059,7.1,7.1,0,0,1-2.644.114" transform="translate(225.27 309.762)" fill="#4c4b3f"/>
      <path id="パス_119062" data-name="パス 119062" d="M115.483,152.814a10.23,10.23,0,0,1-2.309-.636c-.743-.283-1.449-.669-2.18-1.007a8.252,8.252,0,0,1-2.791-1.655,12.271,12.271,0,0,1-1.574-2.622c-.39-.735-.754-1.489-1.125-2.258s-.761-1.5-1.081-2.283-.643-1.552-.9-2.361-.585-1.588-.757-2.423a22.075,22.075,0,0,1-.158-2.537,20.639,20.639,0,0,1-.051-2.78,21.431,21.431,0,0,1,.386-2.75,21.91,21.91,0,0,1,.563-2.739,19.521,19.521,0,0,1,1.019-2.6,16.889,16.889,0,0,1,1.511-2.35,15.851,15.851,0,0,1,1.835-2.118,14.589,14.589,0,0,1,2.18-1.739,13.993,13.993,0,0,1,2.482-1.269,13.4,13.4,0,0,1,2.669-.787,9.3,9.3,0,0,1,2.839-.1,6.841,6.841,0,0,1,2.677.89,6.506,6.506,0,0,1,2.1,1.879,11.649,11.649,0,0,1,1.43,2.89c.36,1,.772,2.022,1.044,3.078.221.853.46,1.71.658,2.585s.36,1.743.518,2.625.305,1.758.416,2.64.173,1.783.221,2.673.077,1.783.051,2.673-.092,1.791-.2,2.673a18.546,18.546,0,0,1-.581,2.6,18.152,18.152,0,0,1-.813,2.541,15.985,15.985,0,0,1-1.327,2.32,13.771,13.771,0,0,1-1.724,2.011,11.185,11.185,0,0,1-1.993,1.735,8.471,8.471,0,0,1-2.416,1.048,6.912,6.912,0,0,1-2.622.154" transform="translate(274.47 309.806)" fill="#4c4b3f"/>
      <path id="合体_787" data-name="合体 787" d="M135.434,162.055c-3.356-.069-6.677-.311-9.97-.56-3.183-.228-6.5-.567-10.212-1.052a41.168,41.168,0,0,1-6.836-1.681,30.25,30.25,0,0,0-3.114-.906c-1.072-.208-2.145-.339-3.2-.484a46.7,46.7,0,0,1-6.988-1.335c-.865-.249-1.709-.477-2.581-.7a58.621,58.621,0,0,1-7.161-2.249,44.24,44.24,0,0,1-6.345-3.273c-.872-.512-1.716-1.038-2.6-1.488-.906-.477-1.847-.851-2.775-1.245a41.225,41.225,0,0,1-6.345-3.19,34.169,34.169,0,0,1-5.48-4.539c-.74-.692-1.439-1.391-2.228-1.993l-1.578-1.2c-2.02-1.55-4.131-3.148-6.206-5.051l-1.64-1.494a76.058,76.058,0,0,1-5.611-5.445c-.664-.706-1.342-1.411-2.034-2.11a59.027,59.027,0,0,1-4.767-5.307,31.824,31.824,0,0,1-3.577-6.331,22.9,22.9,0,0,0-1.287-2.512c-.547-.844-1.162-1.633-1.785-2.449A38.52,38.52,0,0,1,27.186,99.6a70.649,70.649,0,0,1-3.127-7.14l-.844-2.131c-.381-.92-.851-1.792-1.322-2.7a37.237,37.237,0,0,1-2.864-6.615,60.724,60.724,0,0,1-1.674-7.735c-.138-.782-.27-1.536-.415-2.3a37.519,37.519,0,0,1-.491-7.306c0-.982.014-1.965-.055-2.927-.083-.9-.173-1.806-.27-2.692a47.48,47.48,0,0,1-.464-7.576,51.963,51.963,0,0,1,1-7.708c.152-.823.3-1.654.429-2.5.152-.906.187-1.868.27-2.809.055-1,.138-2.124.277-3.314A58.746,58.746,0,0,0,9.1,35.651,7.29,7.29,0,1,1,5.5,21.523a74.838,74.838,0,0,1,37.3.152,7.3,7.3,0,0,1-1.84,14.357,7.8,7.8,0,0,1-1.847-.249c-.955-.249-1.91-.477-2.871-.678a21.99,21.99,0,0,0-.4,3.619c-.1,1.474-.214,2.934-.443,4.373-.152,1.01-.339,2-.526,3a41.189,41.189,0,0,0-.692,5.051,34.9,34.9,0,0,0,.339,4.8c.125,1.114.263,2.228.353,3.335.111,1.467.111,2.975.111,4.484a23.674,23.674,0,0,0,.152,3.785c.173.851.318,1.716.47,2.567a52.547,52.547,0,0,0,1.169,5.611,21.943,21.943,0,0,0,1.55,3.335c.726,1.418,1.446,2.83,2.048,4.262l.941,2.352a55.568,55.568,0,0,0,2.3,5.369,26.567,26.567,0,0,0,2.166,3.114,43.813,43.813,0,0,1,2.726,3.771,37.124,37.124,0,0,1,2.5,4.746,17.78,17.78,0,0,0,1.446,2.781,44.253,44.253,0,0,0,3.314,3.639c.83.844,1.661,1.7,2.47,2.56,1.259,1.4,2.768,2.775,4.373,4.228l1.751,1.6c1.432,1.3,3.086,2.567,4.864,3.9l1.709,1.322a41.494,41.494,0,0,1,3.695,3.273,21.23,21.23,0,0,0,2.678,2.318,24.935,24.935,0,0,0,3.577,1.716c1.377.581,2.733,1.162,4.055,1.861,1.183.6,2.352,1.3,3.515,1.979a31.578,31.578,0,0,0,3.812,2.055,49.214,49.214,0,0,0,4.975,1.508c1.017.263,2.034.526,3.031.81a30.52,30.52,0,0,0,4.317.775c1.467.208,2.954.415,4.407.713a47.135,47.135,0,0,1,5.009,1.377,23.027,23.027,0,0,0,3.66.962c3.349.45,6.31.754,9.022.962,3.127.221,6.165.45,9.175.526,3.072.055,6.179.055,9.271.021,2.885-.042,5.729-.152,8.607-.27l4.075-.152c2.055-.069,4.1-.125,6.158-.242,1.543-.09,3.093-.242,4.636-.394,1.619-.152,3.259-.325,4.885-.415,1.2-.069,2.387-.3,3.6-.491a46.565,46.565,0,0,1,5.383-.692c1.508-.118,3.037-.152,4.546-.208,1.488-.062,2.954-.1,4.442-.214,1.3-.09,2.636-.187,3.958-.256,1.64-.1,3.3-.194,4.933-.346,1.681-.152,3.376-.187,5.072-.187,1.4-.021,2.733-.021,3.805-.152a20.667,20.667,0,0,0,3.183-.789,41.6,41.6,0,0,1,5.4-1.259,43.116,43.116,0,0,1,5.348-.394,24.952,24.952,0,0,0,3.39-.228c2.844-.554,5.674-1.19,8.476-1.861a20.607,20.607,0,0,0,2.954-1.176,38.147,38.147,0,0,1,5.072-1.972l2.47-.72c1.9-.533,3.785-1.052,5.653-1.73a38.958,38.958,0,0,1,5.279-1.4,20.215,20.215,0,0,0,3-.768c2.366-1.059,4.816-2.325,7.549-3.771,1.4-.733,2.906-1.737,4.484-2.788.872-.567,1.716-1.149,2.588-1.7,2.9-1.834,5.009-3.28,6.857-4.677a29.436,29.436,0,0,0,3-2.878c.941-.982,1.882-1.944,2.864-2.864.754-.7,1.522-1.377,2.3-2.055a41.073,41.073,0,0,0,3.667-3.466c.872-.976,1.813-1.944,2.754-2.878a26.9,26.9,0,0,0,2.775-3.044,19.731,19.731,0,0,0,1.356-2.816,40.443,40.443,0,0,1,1.993-4.248l.872-1.543c1.052-1.861,2.055-3.632,2.809-5.314.374-.865.768-1.709,1.162-2.581a42.265,42.265,0,0,0,1.979-4.67A17.116,17.116,0,0,0,309,72.993a42.387,42.387,0,0,1,.906-4.933,34.108,34.108,0,0,1,1.827-4.989,19.292,19.292,0,0,0,1-2.657,20.822,20.822,0,0,0,.194-3.058,35.376,35.376,0,0,1,.339-5.162,44.951,44.951,0,0,1,1.052-4.885,22.2,22.2,0,0,0,.7-3.238c.152-1.411.187-2.844.221-4.269.055-1.356.1-2.74.194-4.1.111-1.7.166-3.411.242-5.106.041-1.114.076-2.221.131-3.335.055-1.259-.021-2.525-.055-3.764-.076-1.584-.131-3.183-.1-4.753a28.187,28.187,0,0,1,.339-3.321c-3,.374-5.978.872-8.946,1.5a7.829,7.829,0,0,1-1.529.166,7.3,7.3,0,0,1-1.5-14.44,121.99,121.99,0,0,1,38.829-1.9,7.292,7.292,0,0,1-1.6,14.5q-3.145-.342-6.276-.512c-.111.65-.235,1.252-.339,1.813a19.534,19.534,0,0,0-.457,2.768c-.021,1.128.035,2.283.083,3.418.069,1.8.125,3.612.048,5.418-.048,1.024-.1,2.055-.111,3.072-.076,1.944-.131,3.868-.284,5.805-.076,1.114-.111,2.228-.152,3.335-.035,1.889-.111,3.771-.3,5.632a43.664,43.664,0,0,1-1.183,5.937,23.3,23.3,0,0,0-.657,2.92,20.7,20.7,0,0,0-.166,2.878,36.322,36.322,0,0,1-.533,6.3,31.544,31.544,0,0,1-2.145,6.324,19.555,19.555,0,0,0-.941,2.449,18.188,18.188,0,0,0-.457,2.678,32.039,32.039,0,0,1-1.391,6.5,67.677,67.677,0,0,1-2.691,6.442c-.36.754-.706,1.508-1.024,2.263-1.135,2.546-2.408,4.788-3.632,6.954l-.83,1.474a21.363,21.363,0,0,0-1.093,2.394,32.266,32.266,0,0,1-3.259,6.276,41.891,41.891,0,0,1-4.829,5.48c-.671.678-1.356,1.335-1.972,2.055a57.74,57.74,0,0,1-5.348,5.141c-.664.567-1.3,1.135-1.93,1.716-.713.657-1.37,1.377-2.048,2.076a42.128,42.128,0,0,1-5.169,4.8c-2.3,1.751-4.8,3.46-8.158,5.6-.754.484-1.508.976-2.263,1.467a68.688,68.688,0,0,1-6.082,3.75c-3.051,1.605-5.805,3.031-8.759,4.331a31.178,31.178,0,0,1-6.649,1.958,25.456,25.456,0,0,0-2.754.678c-2.373.872-4.691,1.529-6.912,2.152l-2.276.643a23.742,23.742,0,0,0-2.74,1.128,35.443,35.443,0,0,1-6.255,2.283c-3.086.733-6.2,1.446-9.306,2.027a34.738,34.738,0,0,1-6.31.547,30.93,30.93,0,0,0-3.127.208,27.49,27.49,0,0,0-3,.754,38.56,38.56,0,0,1-6.158,1.377,50.316,50.316,0,0,1-5.84.263c-1.169.021-2.332,0-3.48.118-1.847.187-3.716.277-5.563.394-1.225.069-2.436.152-3.653.242-1.737.118-3.466.187-5.224.242-1.322.042-2.636.083-3.937.173a32.914,32.914,0,0,0-3.577.491,53.826,53.826,0,0,1-5.48.7c-1.418.09-2.83.242-4.228.381-1.806.159-3.619.332-5.425.429-2.186.131-4.366.208-6.573.277l-3.937.152c-3.037.118-6.089.228-9.105.27q-2.366.031-4.746.035C138.9,162.117,137.164,162.1,135.434,162.055Z" transform="translate(181.394 416.132)" fill="#4c4b3f" stroke="rgba(0,0,0,0)" stroke-miterlimit="10" stroke-width="1"/>
    </g>
  </g>
</svg>
